<?xml version="1.0" encoding="UTF-8"?>
<svg xmlns="http://www.w3.org/2000/svg" xmlns:xlink="http://www.w3.org/1999/xlink" width="25px" height="25px" viewBox="0 0 25 25" version="1.1">
<g id="surface1">
<path style=" stroke:none;fill-rule:nonzero;fill:rgb(65.490196%,65.490196%,65.490196%);fill-opacity:1;" d="M 14.84375 18.699219 C 14.84375 20.664062 14.835938 22.625 14.851562 24.582031 C 14.851562 24.796875 14.792969 24.855469 14.578125 24.855469 C 12.902344 24.84375 11.238281 24.84375 9.570312 24.855469 C 9.34375 24.855469 9.269531 24.796875 9.269531 24.558594 C 9.277344 20.671875 9.269531 16.785156 9.269531 12.890625 C 9.269531 12.5 9.316406 12.550781 8.917969 12.542969 C 8.210938 12.542969 7.5 12.539062 6.789062 12.550781 C 6.621094 12.550781 6.574219 12.492188 6.574219 12.324219 C 6.574219 11.085938 6.574219 9.851562 6.574219 8.613281 C 6.574219 8.445312 6.621094 8.386719 6.789062 8.390625 C 7.53125 8.40625 8.269531 8.386719 9.011719 8.40625 C 9.210938 8.410156 9.277344 8.351562 9.277344 8.144531 C 9.269531 7.101562 9.277344 6.058594 9.269531 5.019531 C 9.269531 4.152344 9.402344 3.320312 9.832031 2.558594 C 10.300781 1.730469 11.003906 1.15625 11.875 0.785156 C 12.605469 0.472656 13.378906 0.324219 14.167969 0.285156 C 15.734375 0.195312 17.3125 0.265625 18.878906 0.238281 C 19.050781 0.234375 19.09375 0.296875 19.09375 0.460938 C 19.089844 1.746094 19.089844 3.035156 19.09375 4.320312 C 19.09375 4.515625 19.023438 4.542969 18.855469 4.542969 C 17.949219 4.542969 17.042969 4.542969 16.144531 4.542969 C 15.390625 4.542969 14.851562 5.082031 14.851562 5.824219 C 14.851562 6.589844 14.855469 7.355469 14.84375 8.117188 C 14.835938 8.339844 14.910156 8.390625 15.125 8.390625 C 16.355469 8.386719 17.597656 8.390625 18.835938 8.386719 C 19.035156 8.386719 19.109375 8.441406 19.082031 8.644531 C 19.011719 9.277344 18.945312 9.910156 18.878906 10.535156 C 18.816406 11.144531 18.703125 11.746094 18.605469 12.34375 C 18.582031 12.511719 18.527344 12.554688 18.371094 12.554688 C 17.3125 12.550781 16.257812 12.550781 15.195312 12.554688 C 14.78125 12.554688 14.839844 12.5 14.839844 12.917969 C 14.84375 14.84375 14.84375 16.769531 14.84375 18.699219 Z M 14.84375 18.699219 "/>
</g>
</svg>
