<?xml version="1.0" encoding="UTF-8"?>
<svg xmlns="http://www.w3.org/2000/svg" xmlns:xlink="http://www.w3.org/1999/xlink" width="25px" height="25px" viewBox="0 0 25 25" version="1.1">
<g id="surface1">
<path style=" stroke:none;fill-rule:nonzero;fill:rgb(26.666667%,26.666667%,26.666667%);fill-opacity:1;" d="M 21.875 20.46875 L 21.875 18.75 L 7.1875 18.75 L 8.125 17.03125 L 22.5 15.625 L 25 6.25 L 5.78125 6.25 L 4.6875 1.5625 L 0 1.5625 L 0 3.125 L 3.4375 3.125 L 6.71875 16.25 L 4.6875 20.3125 L 4.6875 22.65625 C 4.6875 23.90625 5.78125 25 7.03125 25 C 8.28125 25 9.375 23.90625 9.375 22.65625 C 9.375 21.40625 8.28125 20.3125 7.03125 20.3125 L 18.75 20.3125 L 18.75 22.65625 C 18.75 23.90625 19.84375 25 21.09375 25 C 22.34375 25 23.4375 23.90625 23.4375 22.65625 C 23.4375 21.5625 22.8125 20.78125 21.875 20.46875 Z M 6.25 7.8125 L 22.96875 7.8125 L 21.25 14.0625 L 8.125 15.46875 Z M 6.25 7.8125 "/>
</g>
</svg>
