<?xml version="1.0" encoding="UTF-8"?>
<svg xmlns="http://www.w3.org/2000/svg" xmlns:xlink="http://www.w3.org/1999/xlink" width="25px" height="25px" viewBox="0 0 25 25" version="1.1">
<g id="surface1">
<path style=" stroke:none;fill-rule:nonzero;fill:rgb(65.490196%,65.490196%,65.490196%);fill-opacity:1;" d="M 24.660156 12.550781 C 24.660156 14.296875 24.660156 16.042969 24.660156 17.800781 C 24.648438 20.339844 23.464844 22.214844 21.355469 23.542969 C 20.125 24.316406 18.75 24.660156 17.292969 24.660156 C 14.113281 24.660156 10.929688 24.675781 7.746094 24.65625 C 5.535156 24.636719 3.632812 23.855469 2.121094 22.214844 C 1.191406 21.199219 0.636719 20.007812 0.472656 18.621094 C 0.441406 18.332031 0.433594 18.039062 0.433594 17.746094 C 0.433594 14.269531 0.429688 10.789062 0.433594 7.304688 C 0.449219 4.757812 1.628906 2.878906 3.738281 1.550781 C 4.988281 0.773438 6.363281 0.441406 7.824219 0.441406 C 11.003906 0.441406 14.171875 0.421875 17.351562 0.441406 C 19.570312 0.457031 21.476562 1.242188 22.988281 2.898438 C 23.914062 3.90625 24.464844 5.105469 24.621094 6.472656 C 24.679688 7.003906 24.65625 7.546875 24.660156 8.074219 C 24.660156 9.570312 24.660156 11.0625 24.660156 12.550781 Z M 2.246094 12.550781 C 2.246094 14.34375 2.238281 16.125 2.246094 17.917969 C 2.253906 19.152344 2.703125 20.207031 3.542969 21.085938 C 4.667969 22.265625 6.074219 22.839844 7.6875 22.84375 C 10.898438 22.863281 14.101562 22.851562 17.3125 22.851562 C 18.347656 22.851562 19.328125 22.628906 20.226562 22.109375 C 21.90625 21.144531 22.859375 19.734375 22.859375 17.746094 C 22.859375 14.226562 22.859375 10.703125 22.859375 7.175781 C 22.859375 5.957031 22.410156 4.902344 21.578125 4.03125 C 20.457031 2.84375 19.050781 2.265625 17.433594 2.253906 C 14.191406 2.234375 10.957031 2.246094 7.714844 2.246094 C 6.707031 2.246094 5.75 2.488281 4.871094 2.980469 C 3.191406 3.953125 2.238281 5.363281 2.246094 7.351562 C 2.246094 9.082031 2.246094 10.8125 2.246094 12.550781 Z M 2.246094 12.550781 "/>
<path style=" stroke:none;fill-rule:nonzero;fill:rgb(65.490196%,65.490196%,65.490196%);fill-opacity:1;" d="M 12.566406 17.722656 C 9.410156 17.722656 6.882812 15.207031 6.886719 12.058594 C 6.886719 8.996094 9.453125 6.492188 12.585938 6.496094 C 15.730469 6.496094 18.269531 9.015625 18.261719 12.136719 C 18.253906 15.222656 15.703125 17.722656 12.566406 17.722656 Z M 12.566406 15.917969 C 14.707031 15.917969 16.457031 14.210938 16.457031 12.121094 C 16.457031 10.011719 14.71875 8.300781 12.585938 8.300781 C 10.441406 8.300781 8.691406 10.007812 8.691406 12.097656 C 8.691406 14.207031 10.421875 15.917969 12.566406 15.917969 Z M 12.566406 15.917969 "/>
<path style=" stroke:none;fill-rule:nonzero;fill:rgb(65.490196%,65.490196%,65.490196%);fill-opacity:1;" d="M 17.722656 6.035156 C 17.722656 5.339844 18.253906 4.785156 18.917969 4.785156 C 19.582031 4.785156 20.117188 5.34375 20.117188 6.035156 C 20.117188 6.710938 19.582031 7.273438 18.933594 7.277344 C 18.269531 7.277344 17.722656 6.730469 17.722656 6.035156 Z M 17.722656 6.035156 "/>
</g>
</svg>
