<?xml version="1.0" encoding="UTF-8"?>
<svg xmlns="http://www.w3.org/2000/svg" xmlns:xlink="http://www.w3.org/1999/xlink" width="25px" height="25px" viewBox="0 0 25 25" version="1.1">
<g id="surface1">
<path style=" stroke:none;fill-rule:nonzero;fill:rgb(65.490196%,65.490196%,65.490196%);fill-opacity:1;" d="M 24.707031 12.335938 C 24.699219 14.453125 24.246094 16.316406 23.3125 18.054688 C 22.441406 19.6875 21.238281 21.046875 19.714844 22.121094 C 18.386719 23.066406 16.925781 23.710938 15.324219 24.042969 C 13.5625 24.410156 11.789062 24.367188 10.039062 23.953125 C 9.113281 23.726562 8.222656 23.386719 7.386719 22.929688 C 7.246094 22.851562 7.121094 22.847656 6.972656 22.898438 C 5.128906 23.488281 3.292969 24.074219 1.453125 24.660156 C 1.238281 24.726562 1.035156 24.792969 0.824219 24.871094 C 0.675781 24.921875 0.671875 24.871094 0.707031 24.746094 C 0.925781 24.117188 1.132812 23.488281 1.347656 22.851562 C 1.808594 21.476562 2.265625 20.105469 2.734375 18.738281 C 2.800781 18.5625 2.707031 18.445312 2.628906 18.3125 C 2.054688 17.316406 1.648438 16.25 1.394531 15.128906 C 0.839844 12.707031 1.035156 10.332031 1.964844 8.035156 C 2.5 6.707031 3.269531 5.515625 4.246094 4.460938 C 5.496094 3.109375 6.980469 2.121094 8.683594 1.457031 C 10.285156 0.832031 11.933594 0.597656 13.632812 0.695312 C 15.964844 0.839844 18.078125 1.613281 19.941406 3.019531 C 22.351562 4.832031 23.859375 7.21875 24.464844 10.183594 C 24.628906 10.945312 24.6875 11.707031 24.707031 12.335938 Z M 12.820312 2.675781 C 12.363281 2.65625 11.828125 2.707031 11.300781 2.785156 C 11.085938 2.816406 10.886719 2.863281 10.679688 2.914062 C 7.507812 3.722656 5.222656 5.613281 3.882812 8.601562 C 3.105469 10.324219 2.898438 12.140625 3.191406 14.011719 C 3.417969 15.480469 3.964844 16.84375 4.820312 18.066406 C 4.910156 18.203125 4.929688 18.320312 4.871094 18.46875 C 4.511719 19.53125 4.160156 20.597656 3.800781 21.660156 C 3.78125 21.71875 3.726562 21.785156 3.777344 21.84375 C 3.835938 21.902344 3.898438 21.835938 3.960938 21.816406 C 5.027344 21.472656 6.101562 21.140625 7.160156 20.78125 C 7.402344 20.699219 7.578125 20.738281 7.789062 20.867188 C 10.183594 22.304688 12.75 22.683594 15.449219 21.96875 C 17.5 21.425781 19.191406 20.308594 20.527344 18.660156 C 21.824219 17.058594 22.546875 15.234375 22.691406 13.191406 C 22.800781 11.628906 22.558594 10.105469 21.933594 8.648438 C 21.144531 6.816406 19.921875 5.351562 18.269531 4.265625 C 16.648438 3.195312 14.855469 2.648438 12.820312 2.675781 Z M 12.820312 2.675781 "/>
<path style=" stroke:none;fill-rule:nonzero;fill:rgb(65.490196%,65.490196%,65.490196%);fill-opacity:1;" d="M 6.984375 9.648438 C 7.003906 8.546875 7.433594 7.644531 8.273438 6.941406 C 8.515625 6.746094 8.800781 6.660156 9.121094 6.710938 C 9.257812 6.730469 9.402344 6.75 9.53125 6.738281 C 9.863281 6.710938 10.050781 6.902344 10.15625 7.175781 C 10.46875 7.996094 10.769531 8.816406 11.082031 9.636719 C 11.140625 9.792969 11.121094 9.933594 11.050781 10.085938 C 10.859375 10.480469 10.558594 10.789062 10.253906 11.09375 C 9.988281 11.359375 9.976562 11.453125 10.15625 11.777344 C 11.03125 13.359375 12.238281 14.589844 13.90625 15.339844 C 13.992188 15.371094 14.0625 15.429688 14.140625 15.464844 C 14.351562 15.566406 14.542969 15.558594 14.714844 15.378906 C 15.058594 15.027344 15.378906 14.660156 15.683594 14.277344 C 15.925781 13.976562 16.035156 13.933594 16.375 14.089844 C 17.195312 14.46875 17.976562 14.910156 18.769531 15.339844 C 19.035156 15.480469 19.0625 15.675781 19.023438 16.035156 C 18.863281 17.488281 17.753906 18.144531 16.492188 18.355469 C 16.066406 18.425781 15.664062 18.386719 15.261719 18.257812 C 14.089844 17.882812 12.941406 17.457031 11.902344 16.785156 C 10.9375 16.152344 10.105469 15.367188 9.382812 14.472656 C 8.671875 13.601562 8.042969 12.675781 7.519531 11.675781 C 7.226562 11.105469 6.984375 10.214844 6.984375 9.648438 Z M 6.984375 9.648438 "/>
</g>
</svg>
